<mxfile host="app.diagrams.net" modified="2024-01-20T05:08:32.477Z" agent="Mozilla/5.0 (Windows NT 10.0; Win64; x64) AppleWebKit/537.36 (KHTML, like Gecko) Chrome/120.0.0.0 Safari/537.36" etag="0bRca9GG3o0Myj-7RHBW" version="22.1.21" type="device">
  <diagram name="Page-1" id="w4DDqdVWvOIdXoaSEBv5">
    <mxGraphModel dx="2524" dy="746" grid="0" gridSize="10" guides="0" tooltips="1" connect="1" arrows="1" fold="1" page="1" pageScale="1" pageWidth="850" pageHeight="1100" math="0" shadow="0">
      <root>
        <mxCell id="0" />
        <mxCell id="1" parent="0" />
        <mxCell id="hPUf4s1giV2FWm5hYSLF-20" style="edgeStyle=orthogonalEdgeStyle;rounded=0;orthogonalLoop=1;jettySize=auto;html=1;exitX=1;exitY=0.5;exitDx=0;exitDy=0;entryX=0;entryY=0.5;entryDx=0;entryDy=0;" parent="1" source="hPUf4s1giV2FWm5hYSLF-1" target="hPUf4s1giV2FWm5hYSLF-2" edge="1">
          <mxGeometry relative="1" as="geometry" />
        </mxCell>
        <mxCell id="hPUf4s1giV2FWm5hYSLF-1" value="Prepare dataset lớn" style="rounded=0;whiteSpace=wrap;html=1;" parent="1" vertex="1">
          <mxGeometry x="40" y="210" width="120" height="60" as="geometry" />
        </mxCell>
        <mxCell id="hPUf4s1giV2FWm5hYSLF-21" style="edgeStyle=orthogonalEdgeStyle;rounded=0;orthogonalLoop=1;jettySize=auto;html=1;exitX=1;exitY=0.5;exitDx=0;exitDy=0;entryX=0;entryY=0.5;entryDx=0;entryDy=0;" parent="1" source="hPUf4s1giV2FWm5hYSLF-2" target="hPUf4s1giV2FWm5hYSLF-3" edge="1">
          <mxGeometry relative="1" as="geometry" />
        </mxCell>
        <mxCell id="hPUf4s1giV2FWm5hYSLF-2" value="Preprocessing dataset" style="rounded=0;whiteSpace=wrap;html=1;" parent="1" vertex="1">
          <mxGeometry x="210" y="210" width="120" height="60" as="geometry" />
        </mxCell>
        <mxCell id="hPUf4s1giV2FWm5hYSLF-22" style="edgeStyle=orthogonalEdgeStyle;rounded=0;orthogonalLoop=1;jettySize=auto;html=1;exitX=1;exitY=0.5;exitDx=0;exitDy=0;entryX=0;entryY=0.5;entryDx=0;entryDy=0;" parent="1" source="hPUf4s1giV2FWm5hYSLF-3" target="hPUf4s1giV2FWm5hYSLF-4" edge="1">
          <mxGeometry relative="1" as="geometry" />
        </mxCell>
        <mxCell id="hPUf4s1giV2FWm5hYSLF-3" value="Tổng hợp dictionary" style="rounded=0;whiteSpace=wrap;html=1;" parent="1" vertex="1">
          <mxGeometry x="390" y="210" width="120" height="60" as="geometry" />
        </mxCell>
        <mxCell id="hPUf4s1giV2FWm5hYSLF-23" style="edgeStyle=orthogonalEdgeStyle;rounded=0;orthogonalLoop=1;jettySize=auto;html=1;exitX=0.5;exitY=1;exitDx=0;exitDy=0;entryX=0.5;entryY=0;entryDx=0;entryDy=0;" parent="1" source="hPUf4s1giV2FWm5hYSLF-4" target="hPUf4s1giV2FWm5hYSLF-5" edge="1">
          <mxGeometry relative="1" as="geometry" />
        </mxCell>
        <mxCell id="hPUf4s1giV2FWm5hYSLF-4" value="Onehot encoding" style="rounded=0;whiteSpace=wrap;html=1;" parent="1" vertex="1">
          <mxGeometry x="570" y="210" width="120" height="60" as="geometry" />
        </mxCell>
        <mxCell id="hPUf4s1giV2FWm5hYSLF-24" style="edgeStyle=orthogonalEdgeStyle;rounded=0;orthogonalLoop=1;jettySize=auto;html=1;exitX=0;exitY=0.5;exitDx=0;exitDy=0;entryX=1;entryY=0.5;entryDx=0;entryDy=0;" parent="1" source="hPUf4s1giV2FWm5hYSLF-5" target="hPUf4s1giV2FWm5hYSLF-6" edge="1">
          <mxGeometry relative="1" as="geometry" />
        </mxCell>
        <mxCell id="hPUf4s1giV2FWm5hYSLF-5" value="Build model" style="rounded=0;whiteSpace=wrap;html=1;" parent="1" vertex="1">
          <mxGeometry x="570" y="320" width="120" height="60" as="geometry" />
        </mxCell>
        <mxCell id="hPUf4s1giV2FWm5hYSLF-25" style="edgeStyle=orthogonalEdgeStyle;rounded=0;orthogonalLoop=1;jettySize=auto;html=1;exitX=0;exitY=0.5;exitDx=0;exitDy=0;entryX=1;entryY=0.5;entryDx=0;entryDy=0;" parent="1" source="hPUf4s1giV2FWm5hYSLF-6" target="hPUf4s1giV2FWm5hYSLF-7" edge="1">
          <mxGeometry relative="1" as="geometry" />
        </mxCell>
        <mxCell id="hPUf4s1giV2FWm5hYSLF-6" value="Training model" style="rounded=0;whiteSpace=wrap;html=1;" parent="1" vertex="1">
          <mxGeometry x="390" y="320" width="120" height="60" as="geometry" />
        </mxCell>
        <mxCell id="hPUf4s1giV2FWm5hYSLF-26" style="edgeStyle=orthogonalEdgeStyle;rounded=0;orthogonalLoop=1;jettySize=auto;html=1;exitX=0;exitY=0.5;exitDx=0;exitDy=0;entryX=1;entryY=0.5;entryDx=0;entryDy=0;" parent="1" source="hPUf4s1giV2FWm5hYSLF-7" target="hPUf4s1giV2FWm5hYSLF-8" edge="1">
          <mxGeometry relative="1" as="geometry" />
        </mxCell>
        <mxCell id="hPUf4s1giV2FWm5hYSLF-7" value="Evaluate model" style="rounded=0;whiteSpace=wrap;html=1;" parent="1" vertex="1">
          <mxGeometry x="210" y="320" width="120" height="60" as="geometry" />
        </mxCell>
        <mxCell id="hPUf4s1giV2FWm5hYSLF-27" style="edgeStyle=orthogonalEdgeStyle;rounded=0;orthogonalLoop=1;jettySize=auto;html=1;exitX=0.5;exitY=1;exitDx=0;exitDy=0;entryX=0;entryY=0.5;entryDx=0;entryDy=0;" parent="1" source="hPUf4s1giV2FWm5hYSLF-8" target="hPUf4s1giV2FWm5hYSLF-9" edge="1">
          <mxGeometry relative="1" as="geometry" />
        </mxCell>
        <mxCell id="hPUf4s1giV2FWm5hYSLF-8" value="Lấy output của embedding layer trong model làm embedding features" style="rounded=0;whiteSpace=wrap;html=1;" parent="1" vertex="1">
          <mxGeometry x="40" y="320" width="120" height="60" as="geometry" />
        </mxCell>
        <mxCell id="hPUf4s1giV2FWm5hYSLF-9" value="Áp dụng cho các bài toán" style="rounded=0;whiteSpace=wrap;html=1;" parent="1" vertex="1">
          <mxGeometry x="295" y="520" width="120" height="60" as="geometry" />
        </mxCell>
        <mxCell id="hPUf4s1giV2FWm5hYSLF-10" value="Crawl các dữ liệu gồm các tài liệu&lt;br&gt;&amp;nbsp;trên mạng như : &lt;br&gt;Wikipedia, Github content, &lt;br&gt;báo New York Times,..." style="text;html=1;align=center;verticalAlign=middle;resizable=0;points=[];autosize=1;strokeColor=none;fillColor=none;" parent="1" vertex="1">
          <mxGeometry x="-30" y="130" width="200" height="70" as="geometry" />
        </mxCell>
        <mxCell id="hPUf4s1giV2FWm5hYSLF-11" value="&lt;div style=&quot;text-align: center;&quot;&gt;&lt;span style=&quot;background-color: initial;&quot;&gt;Xử lý các trường hợp chữ bị sai chính tả, duplicate. Có thể đưa về lower case để giảm bớt size của dictionary.&lt;/span&gt;&lt;/div&gt;" style="text;whiteSpace=wrap;html=1;" parent="1" vertex="1">
          <mxGeometry x="190" y="130" width="160" height="50" as="geometry" />
        </mxCell>
        <mxCell id="hPUf4s1giV2FWm5hYSLF-12" value="&lt;div style=&quot;text-align: center;&quot;&gt;Thống kê dataset lại thành một dạng để có thể đối chiếu&lt;/div&gt;" style="text;whiteSpace=wrap;html=1;" parent="1" vertex="1">
          <mxGeometry x="381" y="136" width="140" height="50" as="geometry" />
        </mxCell>
        <mxCell id="hPUf4s1giV2FWm5hYSLF-13" value="&lt;div style=&quot;text-align: center;&quot;&gt;Số hóa chữ (word) thành các dạng 0 và 1&lt;/div&gt;" style="text;whiteSpace=wrap;html=1;" parent="1" vertex="1">
          <mxGeometry x="590" y="130" width="120" height="50" as="geometry" />
        </mxCell>
        <mxCell id="hPUf4s1giV2FWm5hYSLF-14" value="&lt;div style=&quot;text-align: center;&quot;&gt;Model gồm lớp embedding và lớp output. Lớp output sẽ là softmax layer&lt;/div&gt;&lt;div style=&quot;text-align: center;&quot;&gt;Có thể có thêm các lớp hidden layer để tăng độ xử lý của mô hình&lt;/div&gt;" style="text;whiteSpace=wrap;html=1;" parent="1" vertex="1">
          <mxGeometry x="570" y="400" width="180" height="50" as="geometry" />
        </mxCell>
        <mxCell id="hPUf4s1giV2FWm5hYSLF-15" value="&lt;div style=&quot;text-align: center;&quot;&gt;Huấn luyện mô hình bằng task dự đoán chữ tiếp theo hoặc chữ xung quanh&lt;/div&gt;" style="text;whiteSpace=wrap;html=1;" parent="1" vertex="1">
          <mxGeometry x="370" y="400" width="160" height="50" as="geometry" />
        </mxCell>
        <mxCell id="hPUf4s1giV2FWm5hYSLF-17" value="&lt;div style=&quot;text-align: center;&quot;&gt;Các embedding feature được lấy ra sẽ có hai đặc điểm chính:&lt;/div&gt;&lt;div style=&quot;text-align: center;&quot;&gt;- Số hóa có ý nghĩa - có sự tương quan giữa các từ với nhau&lt;/div&gt;&lt;div style=&quot;text-align: center;&quot;&gt;- Size của feature sẽ giảm bớt so với dạng onehot encoding&lt;/div&gt;" style="text;whiteSpace=wrap;html=1;" parent="1" vertex="1">
          <mxGeometry x="-220" y="310" width="230" height="50" as="geometry" />
        </mxCell>
        <mxCell id="hPUf4s1giV2FWm5hYSLF-18" value="&lt;div style=&quot;text-align: center;&quot;&gt;Đánh giá kết quả training, so sánh val/test ở hàm loss và accuracy&lt;/div&gt;" style="text;whiteSpace=wrap;html=1;" parent="1" vertex="1">
          <mxGeometry x="220" y="400" width="100" height="50" as="geometry" />
        </mxCell>
        <mxCell id="hPUf4s1giV2FWm5hYSLF-19" value="&lt;div style=&quot;text-align: center;&quot;&gt;Các bài toán như:&amp;nbsp;&lt;/div&gt;&lt;div style=&quot;text-align: center;&quot;&gt;- Sentiment Analysis (dự đoán good/bad của môt comment)&lt;/div&gt;&lt;div style=&quot;text-align: center;&quot;&gt;- Named Entity Recognition (dự đoán một chữ cái là dạng ám chỉ về người/tổ chức/đơn vị tiền tệ&lt;/div&gt;" style="text;whiteSpace=wrap;html=1;" parent="1" vertex="1">
          <mxGeometry x="240" y="610" width="230" height="50" as="geometry" />
        </mxCell>
      </root>
    </mxGraphModel>
  </diagram>
</mxfile>
